<svg width="26" height="23" viewBox="0 0 26 23" fill="none" xmlns="http://www.w3.org/2000/svg">
<g clip-path="url(#clip0_47_78)">
<path d="M11.1042 12.4584C11.1042 13.1197 10.4975 13.6563 9.75 13.6563C9.0025 13.6563 8.39583 13.1197 8.39583 12.4584C8.39583 11.7972 9.0025 11.2605 9.75 11.2605C10.4975 11.2605 11.1042 11.7972 11.1042 12.4584ZM16.25 11.2605C15.5025 11.2605 14.8958 11.7972 14.8958 12.4584C14.8958 13.1197 15.5025 13.6563 16.25 13.6563C16.9975 13.6563 17.6042 13.1197 17.6042 12.4584C17.6042 11.7972 16.9975 11.2605 16.25 11.2605ZM23.8333 11.5001C23.8333 16.7901 18.98 21.0834 13 21.0834C7.02 21.0834 2.16666 16.7901 2.16666 11.5001C2.16666 6.21008 7.02 1.91675 13 1.91675C18.98 1.91675 23.8333 6.21008 23.8333 11.5001ZM11.5483 3.94841C13.065 6.17175 15.8167 7.66675 18.9583 7.66675C19.4567 7.66675 19.9442 7.61883 20.41 7.55175C18.8933 5.32841 16.1417 3.83341 13 3.83341C12.5017 3.83341 12.0142 3.88133 11.5483 3.94841ZM4.78833 9.0755C6.64083 8.14592 8.07083 6.63175 8.75333 4.8205C6.90083 5.75008 5.47083 7.26425 4.78833 9.0755ZM21.6667 11.5001C21.6667 10.7526 21.5367 10.0338 21.3092 9.35342C20.5508 9.49716 19.7708 9.58341 18.9583 9.58341C15.5675 9.58341 12.545 8.20341 10.5517 6.04716C9.41416 8.5005 7.15 10.4267 4.33333 11.3659C4.34416 11.4042 4.33333 11.4522 4.33333 11.5001C4.33333 15.7263 8.2225 19.1667 13 19.1667C17.7775 19.1667 21.6667 15.7263 21.6667 11.5001Z" fill="#D9E4ED" fill-opacity="0.7"/>
</g>
<defs>
<clipPath id="clip0_47_78">
<rect width="26" height="23" fill="white"/>
</clipPath>
</defs>
</svg>
